HIERARCHY
ROOT Hips
{
	OFFSET -339.306915 540.749023 89.171944
	CHANNELS 6 Xposition Yposition Zposition Zrotation Yrotation Xrotation
	JOINT Spine
	{
		OFFSET 0.000000 2.080078 8.814247
		CHANNELS 6 Xposition Yposition Zposition Zrotation Yrotation Xrotation
		JOINT Spine1
		{
			OFFSET 0.000000 0.000000 8.844139
			CHANNELS 6 Xposition Yposition Zposition Zrotation Yrotation Xrotation
			JOINT Spine2
			{
				OFFSET 0.000000 0.000000 11.682266
				CHANNELS 6 Xposition Yposition Zposition Zrotation Yrotation Xrotation
				JOINT Spine3
				{
					OFFSET 0.000000 0.000000 11.746696
					CHANNELS 6 Xposition Yposition Zposition Zrotation Yrotation Xrotation
					JOINT Neck
					{
						OFFSET 0.000000 0.000000 17.658264
						CHANNELS 6 Xposition Yposition Zposition Zrotation Yrotation Xrotation
						JOINT Neck1
						{
							OFFSET 0.000000 0.000000 5.101517
							CHANNELS 6 Xposition Yposition Zposition Zrotation Yrotation Xrotation
							JOINT Head
							{
								OFFSET 0.000000 0.000000 5.101517
								CHANNELS 6 Xposition Yposition Zposition Zrotation Yrotation Xrotation
								JOINT HeadEnd
								{
									OFFSET 0.000000 0.000000 11.655090
									CHANNELS 6 Xposition Yposition Zposition Zrotation Yrotation Xrotation
									End Site
									{
										OFFSET 0.000000 0.000000 0.100006
									}
								}
							}
						}
					}
					JOINT RightShoulder
					{
						OFFSET -2.625397 0.000000 11.175217
						CHANNELS 6 Xposition Yposition Zposition Zrotation Yrotation Xrotation
						JOINT RightArm
						{
							OFFSET 0.000000 0.000000 10.434708
							CHANNELS 6 Xposition Yposition Zposition Zrotation Yrotation Xrotation
							JOINT RightForeArm
							{
								OFFSET 0.000000 0.000000 29.628418
								CHANNELS 6 Xposition Yposition Zposition Zrotation Yrotation Xrotation
								JOINT RightHand
								{
									OFFSET 0.000000 0.000000 22.857605
									CHANNELS 6 Xposition Yposition Zposition Zrotation Yrotation Xrotation
									JOINT RightHandThumb1
									{
										OFFSET -2.867310 -2.944275 3.959564
										CHANNELS 6 Xposition Yposition Zposition Zrotation Yrotation Xrotation
										JOINT RightHandThumb2
										{
											OFFSET 0.000000 0.000000 3.350403
											CHANNELS 6 Xposition Yposition Zposition Zrotation Yrotation Xrotation
											JOINT RightHandThumb3
											{
												OFFSET 0.000000 0.000000 3.756516
												CHANNELS 6 Xposition Yposition Zposition Zrotation Yrotation Xrotation
												JOINT RightHandThumb4
												{
													OFFSET 0.000000 0.000000 3.147339
													CHANNELS 6 Xposition Yposition Zposition Zrotation Yrotation Xrotation
													End Site
													{
														OFFSET 0.000000 0.000000 0.100006
													}
												}
											}
										}
									}
									JOINT RightHandIndex1
									{
										OFFSET -0.086761 -2.345276 10.030899
										CHANNELS 6 Xposition Yposition Zposition Zrotation Yrotation Xrotation
										JOINT RightHandIndex2
										{
											OFFSET 0.000000 0.000000 4.061096
											CHANNELS 6 Xposition Yposition Zposition Zrotation Yrotation Xrotation
											JOINT RightHandIndex3
											{
												OFFSET 0.000000 0.000000 3.248871
												CHANNELS 6 Xposition Yposition Zposition Zrotation Yrotation Xrotation
												JOINT RightHandIndex4
												{
													OFFSET 0.000000 0.000000 2.639709
													CHANNELS 6 Xposition Yposition Zposition Zrotation Yrotation Xrotation
													End Site
													{
														OFFSET 0.000000 0.000000 0.100006
													}
												}
											}
										}
									}
									JOINT RightHandMiddle1
									{
										OFFSET 0.104095 -0.006775 9.502945
										CHANNELS 6 Xposition Yposition Zposition Zrotation Yrotation Xrotation
										JOINT RightHandMiddle2
										{
											OFFSET 0.000000 0.000000 4.568726
											CHANNELS 6 Xposition Yposition Zposition Zrotation Yrotation Xrotation
											JOINT RightHandMiddle3
											{
												OFFSET 0.000000 0.000000 3.654984
												CHANNELS 6 Xposition Yposition Zposition Zrotation Yrotation Xrotation
												JOINT RightHandMiddle4
												{
													OFFSET 0.000000 0.000000 2.741241
													CHANNELS 6 Xposition Yposition Zposition Zrotation Yrotation Xrotation
													End Site
													{
														OFFSET 0.000000 0.000000 0.100006
													}
												}
											}
										}
									}
									JOINT RightHandRing1
									{
										OFFSET 0.086761 2.267456 8.921707
										CHANNELS 6 Xposition Yposition Zposition Zrotation Yrotation Xrotation
										JOINT RightHandRing2
										{
											OFFSET 0.000000 0.000000 4.061096
											CHANNELS 6 Xposition Yposition Zposition Zrotation Yrotation Xrotation
											JOINT RightHandRing3
											{
												OFFSET 0.000000 0.000000 3.654984
												CHANNELS 6 Xposition Yposition Zposition Zrotation Yrotation Xrotation
												JOINT RightHandRing4
												{
													OFFSET 0.000000 0.000000 2.741241
													CHANNELS 6 Xposition Yposition Zposition Zrotation Yrotation Xrotation
													End Site
													{
														OFFSET 0.000000 0.000000 0.100006
													}
												}
											}
										}
									}
									JOINT RightHandPinky1
									{
										OFFSET -0.173492 4.467224 7.976990
										CHANNELS 6 Xposition Yposition Zposition Zrotation Yrotation Xrotation
										JOINT RightHandPinky2
										{
											OFFSET 0.000000 0.000000 3.350403
											CHANNELS 6 Xposition Yposition Zposition Zrotation Yrotation Xrotation
											JOINT RightHandPinky3
											{
												OFFSET 0.000000 0.000000 2.842758
												CHANNELS 6 Xposition Yposition Zposition Zrotation Yrotation Xrotation
												JOINT RightHandPinky4
												{
													OFFSET 0.000000 0.000000 2.639709
													CHANNELS 6 Xposition Yposition Zposition Zrotation Yrotation Xrotation
													End Site
													{
														OFFSET 0.000000 0.000000 0.100006
													}
												}
											}
										}
									}
									JOINT RightForeArmEnd
									{
										OFFSET 0.000000 0.000000 0.000000
										CHANNELS 6 Xposition Yposition Zposition Zrotation Yrotation Xrotation
										End Site
										{
											OFFSET 0.000000 0.000000 0.100006
										}
									}
								}
								JOINT RightArmEnd
								{
									OFFSET 0.000000 0.000000 0.000000
									CHANNELS 6 Xposition Yposition Zposition Zrotation Yrotation Xrotation
									End Site
									{
										OFFSET 0.000000 0.000000 0.100006
									}
								}
							}
						}
					}
					JOINT LeftShoulder
					{
						OFFSET 2.625397 0.000000 11.175217
						CHANNELS 6 Xposition Yposition Zposition Zrotation Yrotation Xrotation
						JOINT LeftArm
						{
							OFFSET 0.000000 0.000000 10.813629
							CHANNELS 6 Xposition Yposition Zposition Zrotation Yrotation Xrotation
							JOINT LeftForeArm
							{
								OFFSET 0.000000 0.000000 28.724777
								CHANNELS 6 Xposition Yposition Zposition Zrotation Yrotation Xrotation
								JOINT LeftHand
								{
									OFFSET 0.644379 0.328857 25.716171
									CHANNELS 6 Xposition Yposition Zposition Zrotation Yrotation Xrotation
									JOINT LeftHandThumb1
									{
										OFFSET 2.867310 -2.944275 3.959564
										CHANNELS 6 Xposition Yposition Zposition Zrotation Yrotation Xrotation
										JOINT LeftHandThumb2
										{
											OFFSET 0.000000 0.000000 3.350403
											CHANNELS 6 Xposition Yposition Zposition Zrotation Yrotation Xrotation
											JOINT LeftHandThumb3
											{
												OFFSET 0.000000 0.000000 3.756516
												CHANNELS 6 Xposition Yposition Zposition Zrotation Yrotation Xrotation
												JOINT LeftHandThumb4
												{
													OFFSET 0.000000 0.000000 3.100006
													CHANNELS 6 Xposition Yposition Zposition Zrotation Yrotation Xrotation
													End Site
													{
														OFFSET 0.000000 0.000000 0.100006
													}
												}
											}
										}
									}
									JOINT LeftHandIndex1
									{
										OFFSET 0.086761 -2.345276 10.030899
										CHANNELS 6 Xposition Yposition Zposition Zrotation Yrotation Xrotation
										JOINT LeftHandIndex2
										{
											OFFSET 0.000000 0.000000 4.061096
											CHANNELS 6 Xposition Yposition Zposition Zrotation Yrotation Xrotation
											JOINT LeftHandIndex3
											{
												OFFSET 0.000000 0.000000 3.248871
												CHANNELS 6 Xposition Yposition Zposition Zrotation Yrotation Xrotation
												JOINT LeftHandIndex4
												{
													OFFSET 0.000000 0.000000 2.639709
													CHANNELS 6 Xposition Yposition Zposition Zrotation Yrotation Xrotation
													End Site
													{
														OFFSET 0.000000 0.000000 0.100006
													}
												}
											}
										}
									}
									JOINT LeftHandMiddle1
									{
										OFFSET -0.104095 -0.006775 9.502945
										CHANNELS 6 Xposition Yposition Zposition Zrotation Yrotation Xrotation
										JOINT LeftHandMiddle2
										{
											OFFSET 0.000000 0.000000 4.568726
											CHANNELS 6 Xposition Yposition Zposition Zrotation Yrotation Xrotation
											JOINT LeftHandMiddle3
											{
												OFFSET 0.000000 0.000000 3.654984
												CHANNELS 6 Xposition Yposition Zposition Zrotation Yrotation Xrotation
												JOINT LeftHandMiddle4
												{
													OFFSET 0.000000 0.000000 2.741241
													CHANNELS 6 Xposition Yposition Zposition Zrotation Yrotation Xrotation
													End Site
													{
														OFFSET 0.000000 0.000000 0.100006
													}
												}
											}
										}
									}
									JOINT LeftHandRing1
									{
										OFFSET -0.086761 2.267456 8.921707
										CHANNELS 6 Xposition Yposition Zposition Zrotation Yrotation Xrotation
										JOINT LeftHandRing2
										{
											OFFSET 0.000000 0.000000 4.061096
											CHANNELS 6 Xposition Yposition Zposition Zrotation Yrotation Xrotation
											JOINT LeftHandRing3
											{
												OFFSET 0.000000 0.000000 3.654984
												CHANNELS 6 Xposition Yposition Zposition Zrotation Yrotation Xrotation
												JOINT LeftHandRing4
												{
													OFFSET 0.000000 0.000000 2.741241
													CHANNELS 6 Xposition Yposition Zposition Zrotation Yrotation Xrotation
													End Site
													{
														OFFSET 0.000000 0.000000 0.100006
													}
												}
											}
										}
									}
									JOINT LeftHandPinky1
									{
										OFFSET 0.173492 4.467224 7.976990
										CHANNELS 6 Xposition Yposition Zposition Zrotation Yrotation Xrotation
										JOINT LeftHandPinky2
										{
											OFFSET 0.000000 0.000000 3.350403
											CHANNELS 6 Xposition Yposition Zposition Zrotation Yrotation Xrotation
											JOINT LeftHandPinky3
											{
												OFFSET 0.000000 0.000000 2.842758
												CHANNELS 6 Xposition Yposition Zposition Zrotation Yrotation Xrotation
												JOINT LeftHandPinky4
												{
													OFFSET 0.000000 0.000000 2.639709
													CHANNELS 6 Xposition Yposition Zposition Zrotation Yrotation Xrotation
													End Site
													{
														OFFSET 0.000000 0.000000 0.100006
													}
												}
											}
										}
									}
									JOINT LeftForeArmEnd
									{
										OFFSET 0.000000 0.000000 0.000000
										CHANNELS 6 Xposition Yposition Zposition Zrotation Yrotation Xrotation
										End Site
										{
											OFFSET 0.000000 0.000000 0.100006
										}
									}
								}
								JOINT LeftArmEnd
								{
									OFFSET 0.000000 0.000000 0.000000
									CHANNELS 6 Xposition Yposition Zposition Zrotation Yrotation Xrotation
									End Site
									{
										OFFSET 0.000000 0.000000 0.100006
									}
								}
							}
						}
					}
				}
			}
		}
	}
	JOINT RightUpLeg
	{
		OFFSET -11.289948 0.000000 0.000000
		CHANNELS 6 Xposition Yposition Zposition Zrotation Yrotation Xrotation
		JOINT RightLeg
		{
			OFFSET 0.000000 0.000000 -38.200329
			CHANNELS 6 Xposition Yposition Zposition Zrotation Yrotation Xrotation
			JOINT RightFoot
			{
				OFFSET 0.000000 0.000000 -39.900856
				CHANNELS 6 Xposition Yposition Zposition Zrotation Yrotation Xrotation
				JOINT RightToeBase
				{
					OFFSET 0.000000 -15.261658 0.000001
					CHANNELS 6 Xposition Yposition Zposition Zrotation Yrotation Xrotation
					JOINT RightToeBaseEnd
					{
						OFFSET 0.000000 -7.370728 0.000001
						CHANNELS 6 Xposition Yposition Zposition Zrotation Yrotation Xrotation
						End Site
						{
							OFFSET 0.000000 0.000000 0.100000
						}
					}
				}
				JOINT RightLegEnd
				{
					OFFSET 0.000000 0.000000 0.000000
					CHANNELS 6 Xposition Yposition Zposition Zrotation Yrotation Xrotation
					End Site
					{
						OFFSET 0.000000 0.000000 0.100000
					}
				}
			}
			JOINT RightUpLegEnd
			{
				OFFSET 0.000000 0.000000 0.000000
				CHANNELS 6 Xposition Yposition Zposition Zrotation Yrotation Xrotation
				End Site
				{
					OFFSET 0.000000 0.000000 0.099998
				}
			}
		}
	}
	JOINT LeftUpLeg
	{
		OFFSET 11.315674 0.000000 0.000000
		CHANNELS 6 Xposition Yposition Zposition Zrotation Yrotation Xrotation
		JOINT LeftLeg
		{
			OFFSET 0.000000 0.000000 -38.200329
			CHANNELS 6 Xposition Yposition Zposition Zrotation Yrotation Xrotation
			JOINT LeftFoot
			{
				OFFSET 0.000000 0.000000 -39.900856
				CHANNELS 6 Xposition Yposition Zposition Zrotation Yrotation Xrotation
				JOINT LeftToeBase
				{
					OFFSET 0.000000 -15.261658 0.000001
					CHANNELS 6 Xposition Yposition Zposition Zrotation Yrotation Xrotation
					JOINT LeftToeBaseEnd
					{
						OFFSET 0.000000 -7.539978 0.000001
						CHANNELS 6 Xposition Yposition Zposition Zrotation Yrotation Xrotation
						End Site
						{
							OFFSET 0.000000 0.000000 0.100000
						}
					}
				}
				JOINT LeftLegEnd
				{
					OFFSET 0.000000 0.000000 0.000000
					CHANNELS 6 Xposition Yposition Zposition Zrotation Yrotation Xrotation
					End Site
					{
						OFFSET 0.000000 0.000000 0.100000
					}
				}
			}
			JOINT LeftUpLegEnd
			{
				OFFSET 0.000000 0.000000 0.000000
				CHANNELS 6 Xposition Yposition Zposition Zrotation Yrotation Xrotation
				End Site
				{
					OFFSET 0.000000 0.000000 0.099998
				}
			}
		}
	}
}
MOTION
Frames: 2
Frame Time: 0.016667
24.971405 -59.439270 85.310005 28.763183 3.098272 -13.757365 -0.000014 2.080091 8.814247 -0.619237 -2.778395 8.781599 0.000008 0.000018 8.844146 -0.347286 -2.650302 3.786919 -0.000003 -0.000006 11.682293 3.585305 -1.971777 10.035729 -0.000014 -0.000029 11.746694 1.507350 -1.764466 5.749318 -0.000010 0.000014 17.658279 -2.738136 -11.164550 -8.038454 0.000016 0.000013 5.101524 -0.896302 1.094267 -9.756135 -0.000043 -0.000009 5.101524 0.426291 0.483785 -12.211976 -0.000025 -0.000005 11.655096 0.000001 -0.000001 -0.000000 -2.625404 0.000015 11.175238 17.289225 -76.348749 0.970270 -0.000046 -0.000015 10.434715 -13.156629 -11.279537 65.204005 0.000042 -0.000015 29.628391 14.323238 0.336376 108.546049 -0.000008 -0.000023 22.857582 -37.857765 6.556824 -6.578258 -2.867304 -2.944275 3.959549 32.664943 -26.982893 37.911327 0.000008 0.000000 3.350384 -34.105590 10.240051 -57.433271 0.000015 -0.000015 3.756523 -22.737425 10.894838 -39.251434 0.000002 -0.000003 3.147341 0.000000 0.000002 0.000000 -0.086792 -2.345291 10.030884 -27.343308 -86.505029 18.236827 -0.000015 -0.000027 4.061119 8.059466 -60.770536 -14.546431 -0.000042 0.000013 3.248886 8.559457 -60.770536 -14.546440 -0.000013 0.000019 2.639705 -0.000002 -0.000001 0.000000 0.104086 -0.006760 9.502958 -62.689150 -82.678545 57.737857 0.000000 0.000029 4.568707 2.646143 -60.736726 -5.366707 0.000000 0.000005 3.654978 3.146116 -60.736720 -5.366670 -0.000028 -0.000012 2.741254 0.000000 -0.000000 0.000003 0.086754 2.267430 8.921709 -109.594804 -74.629604 111.156110 -0.000021 -0.000003 4.061085 -4.283058 -66.433664 8.060571 0.000000 0.000008 3.654978 -5.283007 -66.433630 8.057243 -0.000014 0.000008 2.741239 0.000000 0.000000 -0.000002 -0.173512 4.467247 7.976990 -105.115211 -66.438493 116.477156 0.000008 -0.000027 3.350410 -15.529526 -66.452652 26.489635 0.000023 0.000023 2.842758 -17.529450 -66.452604 26.489572 0.000002 -0.000000 2.639719 0.000000 0.000001 0.000000 0.000012 0.000012 0.000022 -0.000001 -0.000001 -0.000000 -0.000023 0.000004 0.000013 0.000000 -0.000001 -0.000003 2.625393 0.000012 11.175231 -16.906853 85.330421 -0.042730 -0.000008 -0.000076 10.813660 58.798264 59.206361 50.522540 0.000011 -0.000031 28.724766 -18.700141 2.580954 26.843646 0.644391 0.328821 25.716179 -2.593505 -1.931177 -15.785802 2.867294 -2.944229 3.959610 -31.505511 20.507780 46.755749 0.000000 0.000015 3.350433 19.905714 -10.502807 -34.710956 0.000004 -0.000008 3.756496 13.142762 -8.611690 -23.662822 0.000009 -0.000006 3.100005 0.000000 0.000000 -0.000000 0.086754 -2.345195 10.030930 19.901011 39.986755 9.846595 0.000008 0.000018 4.061096 0.644302 28.867972 4.443741 0.000016 -0.000033 3.248875 1.144308 28.867914 4.443742 0.000002 0.000003 2.639709 -0.000000 0.000000 -0.000000 -0.104095 -0.006722 9.502964 12.579749 38.397473 6.326802 0.000014 -0.000010 4.568756 -0.116011 27.546380 1.566415 0.000008 0.000046 3.654997 0.383986 27.546406 1.566408 0.000000 -0.000004 2.741251 0.000001 -0.000002 0.000001 -0.086763 2.267511 8.921721 2.474293 39.649446 3.541973 0.000009 0.000020 4.061127 0.538626 27.909639 -1.856535 0.000006 -0.000005 3.654995 -0.461377 27.909662 -1.856556 -0.000013 0.000001 2.741248 0.000000 -0.000002 -0.000000 0.173500 4.467302 7.977007 -8.682000 38.684644 -0.882232 0.000002 0.000008 3.350410 0.705948 26.348001 -5.524488 0.000006 -0.000028 2.842781 -1.294062 26.347955 -5.524502 -0.000001 0.000001 2.639721 0.000000 0.000002 -0.000001 -0.000001 0.000067 0.000013 -0.000001 0.000002 -0.000001 -0.000005 0.000001 0.000012 -0.000000 -0.000000 -0.000000 -11.289959 0.000070 -0.000006 -1.888237 4.536675 11.194340 -0.000006 0.000057 -38.200325 -0.913652 0.427373 25.066098 0.000008 -0.000022 -39.900848 -19.830010 -8.762404 9.544810 -0.000005 -15.261636 0.000010 1.926955 1.146176 -20.786417 0.000002 -7.370669 -0.000000 0.000000 0.000000 0.000000 -0.000002 0.000063 0.000004 -0.000000 0.000000 0.000000 -0.000013 0.000013 -0.000007 -0.000002 -0.000002 -0.000000 11.315681 0.000058 0.000004 -2.442845 -15.183825 -6.302537 -0.000020 0.000057 -38.200287 1.736672 -0.765583 23.782061 -0.000047 -0.000016 -39.900867 6.996357 8.591831 20.971428 -0.000011 -15.261607 0.000012 -2.133016 -1.052789 -23.470475 0.000001 -7.539971 0.000002 -0.000001 0.000000 -0.000000 -0.000003 -0.000020 -0.000005 0.000004 0.000000 0.000003 -0.000059 0.000068 -0.000004 -0.000001 -0.000000 0.000000 
26.011841 -59.350708 85.317825 28.558855 2.758635 -13.452256 0.000006 2.080093 8.814232 -0.581563 -2.835516 8.772539 -0.000007 -0.000016 8.844143 -0.272039 -2.379536 3.894070 -0.000000 0.000010 11.682258 3.825957 -1.661713 9.857192 0.000024 0.000010 11.746706 1.550295 -1.455634 5.782256 0.000006 0.000006 17.658257 -2.988544 -10.900102 -8.348345 0.000008 -0.000026 5.101517 -1.281876 1.170920 -9.869150 -0.000033 0.000023 5.101526 0.362788 0.457226 -12.068990 -0.000019 -0.000014 11.655105 0.000003 0.000001 0.000001 -2.625404 -0.000019 11.175205 17.404353 -75.591056 1.009641 -0.000013 -0.000076 10.434704 -16.061753 -10.553058 67.200476 0.000011 -0.000031 29.628399 14.250923 0.289767 107.218909 0.000019 -0.000062 22.857571 -38.142461 6.040022 -6.809894 -2.867255 -2.944275 3.959534 32.664905 -26.982891 37.911330 -0.000015 -0.000031 3.350407 -34.105604 10.240048 -57.433278 0.000015 -0.000015 3.756523 -22.737418 10.894845 -39.251437 0.000003 -0.000003 3.147335 0.000000 0.000000 -0.000002 -0.086734 -2.345307 10.030913 -31.537828 -86.930072 22.177348 -0.000011 -0.000013 4.061089 8.246828 -61.118493 -14.760766 0.000000 -0.000013 3.248878 8.746804 -61.118466 -14.760734 -0.000006 0.000022 2.639704 -0.000002 -0.000000 -0.000002 0.104088 -0.006779 9.502937 -66.131141 -82.885964 60.943319 -0.000044 0.000016 4.568722 2.712705 -61.078646 -5.435397 -0.000015 -0.000020 3.654970 3.212697 -61.078769 -5.436460 -0.000014 -0.000006 2.741262 0.000000 -0.000001 0.000001 0.086803 2.267452 8.921703 -111.342773 -74.446289 112.545712 0.000011 -0.000003 4.061102 -4.401407 -66.762954 8.189547 0.000002 0.000019 3.654961 -5.401450 -66.762989 8.175409 -0.000003 0.000002 2.741261 -0.000001 0.000001 0.000001 -0.173492 4.467216 7.976971 -106.710040 -66.225330 117.424899 -0.000008 -0.000034 3.350388 -15.953155 -66.786607 26.951153 -0.000008 0.000000 2.842766 -17.953161 -66.786628 26.951172 0.000002 0.000009 2.639702 -0.000001 -0.000003 0.000002 -0.000002 0.000006 -0.000030 -0.000001 0.000001 0.000003 0.000030 0.000005 -0.000012 -0.000001 0.000000 -0.000001 2.625441 -0.000009 11.175232 -17.180180 84.893528 -0.036082 0.000008 -0.000014 10.813652 59.401650 57.907751 50.685393 -0.000010 -0.000015 28.724789 -18.758034 2.583874 28.076469 0.644368 0.328804 25.716198 -2.090248 -2.138050 -15.885685 2.867313 -2.944275 3.959618 -31.513420 20.692569 46.493931 -0.000023 0.000015 3.350437 20.319464 -10.574191 -35.376435 0.000011 -0.000015 3.756512 13.413364 -8.714996 -24.113153 0.000040 0.000015 3.100038 -0.000001 0.000002 0.000001 0.086739 -2.345283 10.030899 20.362377 40.900522 10.400081 -0.000002 0.000006 4.061142 0.707063 29.562681 4.572325 0.000007 0.000004 3.248901 1.207058 29.562742 4.572323 0.000030 -0.000002 2.639718 0.000000 -0.000001 0.000000 -0.104095 -0.006757 9.502937 12.891991 39.250792 6.789405 -0.000003 -0.000017 4.568712 -0.096259 28.176523 1.608673 0.000017 -0.000023 3.654997 0.403747 28.176468 1.608679 0.000008 -0.000001 2.741255 0.000000 -0.000000 0.000000 -0.086751 2.267464 8.921705 2.623534 40.359502 3.840489 0.000045 0.000017 4.061119 0.520431 28.399322 -1.895106 0.000047 0.000023 3.655005 -0.479553 28.399293 -1.895087 -0.000011 -0.000003 2.741283 0.000000 -0.000001 0.000000 0.173500 4.467237 7.976995 -8.658326 39.206710 -0.667934 0.000008 -0.000010 3.350395 0.671379 26.664893 -5.601919 0.000002 -0.000025 2.842781 -1.328544 26.665888 -5.601914 0.000011 0.000004 2.639724 -0.000001 0.000001 -0.000001 -0.000004 0.000005 0.000023 0.000000 0.000002 -0.000000 -0.000006 0.000001 0.000005 -0.000000 0.000001 -0.000000 -11.289936 0.000012 0.000000 -1.756825 5.622792 11.387309 -0.000011 -0.000000 -38.200298 -1.021650 0.464441 24.443403 0.000000 -0.000027 -39.900860 -19.366597 -9.229203 9.970848 -0.000013 -15.261667 0.000009 1.987186 1.253409 -20.948197 -0.000001 -7.370664 0.000002 -0.000000 0.000000 -0.000000 -0.000000 0.000060 -0.000003 0.000000 -0.000000 -0.000002 -0.000014 0.000012 -0.000003 -0.000002 -0.000000 -0.000000 11.315676 0.000037 -0.000008 -0.703243 -14.391876 -7.439936 -0.000016 0.000074 -38.200310 1.668105 -0.785640 25.212492 -0.000009 -0.000010 -39.900833 5.924062 8.142874 20.518588 -0.000002 -15.261627 -0.000000 -2.189554 -0.931464 -22.995515 0.000005 -7.540004 0.000002 0.000004 0.000000 -0.000000 -0.000015 -0.000009 0.000002 0.000002 -0.000002 0.000003 -0.000018 0.000096 0.000004 0.000004 -0.000002 0.000000 
